<?xml version="1.0" encoding="UTF-8" standalone="no"?>
<!-- Created with Inkscape (http://www.inkscape.org/) -->

<svg
   xmlns:dc="http://purl.org/dc/elements/1.1/"
   xmlns:cc="http://creativecommons.org/ns#"
   xmlns:rdf="http://www.w3.org/1999/02/22-rdf-syntax-ns#"
   xmlns:svg="http://www.w3.org/2000/svg"
   xmlns="http://www.w3.org/2000/svg"
   xmlns:sodipodi="http://sodipodi.sourceforge.net/DTD/sodipodi-0.dtd"
   xmlns:inkscape="http://www.inkscape.org/namespaces/inkscape"
   width="420"
   height="420"
   id="svg2"
   version="1.1"
   inkscape:version="0.48.0 r9654"
   sodipodi:docname="Sekirei_mark.svg">
  <defs
     id="defs4" />
  <sodipodi:namedview
     id="base"
     pagecolor="#ffffff"
     bordercolor="#666666"
     borderopacity="1.0"
     inkscape:pageopacity="0.0"
     inkscape:pageshadow="2"
     inkscape:zoom="0.35"
     inkscape:cx="42.971596"
     inkscape:cy="199.48154"
     inkscape:document-units="px"
     inkscape:current-layer="layer1"
     showgrid="false"
     fit-margin-top="0"
     fit-margin-left="0"
     fit-margin-right="0"
     fit-margin-bottom="0"
     inkscape:window-width="1360"
     inkscape:window-height="691"
     inkscape:window-x="0"
     inkscape:window-y="25"
     inkscape:window-maximized="1" />
  <metadata
     id="metadata7">
    <rdf:RDF>
      <cc:Work
         rdf:about="">
        <dc:format>image/svg+xml</dc:format>
        <dc:type
           rdf:resource="http://purl.org/dc/dcmitype/StillImage" />
        <dc:title />
      </cc:Work>
    </rdf:RDF>
  </metadata>
  <g
     inkscape:groupmode="layer"
     id="layer1"
     inkscape:label="Layer"
     style="display:inline"
     transform="translate(-273.63448,-233.06068)">
    <path
       style="fill:#000000"
       d="m 476.48778,652.51284 c -9.46059,-1.82504 -18.88519,-6.01858 -26.31421,-11.70873 -13.69126,-10.48668 -21.53357,-32.99107 -17.80633,-51.09732 5.05546,-24.55848 19.55765,-38.74691 44.06162,-43.10834 16.23239,-2.88917 37.78952,4.07288 48.7597,15.74736 4.32681,4.60459 6.11032,7.24328 8.83104,13.06549 4.81927,10.31294 6.72911,22.51029 4.99884,31.92547 -4.39397,23.90956 -17.8863,38.34936 -41.26482,44.16254 -6.36267,1.58209 -15.94971,2.03901 -21.26584,1.01353 z m 19.80266,-4.34289 c 14.08842,-2.29022 27.99637,-12.94974 34.6782,-26.57852 3.48272,-7.10359 4.77233,-12.93764 4.76399,-21.55175 -0.0117,-12.10345 -1.91268,-18.16739 -9.03153,-28.81023 -4.24014,-6.33907 -6.90213,-9.14284 -11.81846,-12.44795 -12.92807,-8.69119 -23.57937,-10.10878 -34.16373,-4.54685 -4.09949,2.15422 -7.36666,5.49308 -9.48878,9.69698 -3.88778,7.70166 -3.99131,15.94449 -0.29196,23.24481 2.50424,4.94189 7.42254,9.2121 13.62849,11.83267 8.14508,3.4394 13.63702,8.04152 16.49181,13.81977 1.32144,2.67471 1.62237,3.95054 1.79794,7.62275 0.24347,5.09231 -0.84873,11.46987 -2.63309,15.37515 -1.54678,3.38531 -5.16076,7.28172 -8.37814,9.03282 -3.22175,1.75351 -8.95365,3.29599 -12.29113,3.30763 -1.36302,0.005 -2.3295,0.15736 -2.14775,0.33907 1.34297,1.34298 9.44099,1.19877 18.88414,-0.33635 z m -1.65708,-64.8566 c -3.29682,-0.90537 -5.54008,-4.16587 -5.16368,-7.50526 0.99981,-8.87032 13.88187,-8.90717 14.85212,-0.0423 0.2536,2.31703 -1.00539,4.70071 -3.43154,6.49712 -1.35307,1.00184 -4.5064,1.53133 -6.2569,1.05063 z m -16.11486,44.69178 c 4.49366,-2.77723 4.05359,-9.18181 -0.80643,-11.7364 -2.47917,-1.30316 -5.19384,-0.85456 -7.32428,1.21036 -2.4618,2.38604 -3.03926,4.51522 -1.97816,7.29366 1.69118,4.42828 5.96346,5.79439 10.10887,3.23238 z m -95.89806,-18.28106 c -9.13468,-4.71265 -15.59405,-11.687 -20.58801,-22.22933 -6.65219,-14.04291 -6.01277,-28.09371 1.86294,-40.93635 3.1931,-5.20687 5.89028,-7.67569 11.25253,-10.29981 14.31959,-7.00755 29.99956,-5.1681 39.81394,4.67065 4.13041,4.14067 5.45303,6.89231 6.41197,13.33981 1.32454,8.90558 -1.47716,17.32262 -7.86724,23.63521 -7.23268,7.14497 -11.03541,7.92518 -29.74138,6.10221 -1.39411,-0.13589 -2.38895,2.18296 -2.67966,6.24595 -0.29259,4.08946 0.40342,7.19387 3.0133,13.44008 1.16705,2.79305 1.90908,5.31957 1.81691,6.18628 l -0.15581,1.465 -3.13949,-1.6197 z m 203.00202,-2.75379 c 0.005,-1.03959 0.79218,-3.79106 1.74914,-6.1144 2.67034,-6.48311 3.32715,-13.14929 1.70332,-17.28739 -0.71502,-1.82211 -1.35686,-1.9764 -4.79969,-1.154 -4.50664,1.07653 -12.3207,0.93928 -16.8177,-0.29542 -11.94746,-3.28032 -18.54446,-13.02379 -18.04578,-26.65288 0.18488,-5.05287 0.29723,-5.52123 2.18453,-9.10715 1.3378,-2.54187 3.23143,-5.02215 5.78022,-7.57094 7.18797,-7.18797 13.61096,-9.2303 25.35076,-8.06083 11.33455,1.1291 19.36507,5.7814 25.51443,14.78122 4.52364,6.62051 5.86304,12.21782 5.32956,22.2724 -0.40187,7.57436 -1.88332,14.17769 -4.21868,18.804 -3.59435,7.12037 -18.92583,22.27556 -22.53468,22.27556 -1.05766,0 -1.20353,-0.23065 -1.19543,-1.89017 z M 317.73493,557.37004 c -6.58356,-6.14832 -10.56994,-12.7997 -12.96328,-21.6296 -1.00407,-3.70438 -1.15011,-5.41673 -1.13633,-13.32347 0.0148,-8.47145 0.10518,-9.34004 1.36388,-13.10513 1.97619,-5.91123 4.59062,-10.00771 9.69057,-15.18383 5.90326,-5.99143 10.63693,-8.23851 19.40568,-9.21192 16.96365,-1.88311 31.78134,7.04122 35.51936,21.39243 1.51669,5.82298 0.44022,13.8509 -2.61949,19.53524 -1.88766,3.50688 -6.29527,7.81644 -10.00882,9.78615 -7.45262,3.95295 -20.0687,4.14191 -27.6869,0.41468 -1.54188,-0.75438 -3.10587,-1.25552 -3.47555,-1.11367 -0.36967,0.14186 -1.21155,1.3536 -1.87085,2.69275 -1.15422,2.34442 -1.19601,2.82317 -1.12535,12.89373 0.0579,8.25965 -0.0638,10.45891 -0.579,10.45891 -0.3588,0 -2.39006,-1.62282 -4.51392,-3.60627 z m 330.21169,0.75002 c -0.60797,-0.60801 -0.35237,-3.213 0.72552,-7.39267 1.80393,-6.9952 0.68152,-14.27521 -2.67642,-17.35941 l -1.24776,-1.14603 -3.49151,1.48579 c -9.51125,4.0474 -19.06908,4.10955 -25.90462,0.16844 -5.2662,-3.03627 -10.71664,-9.68397 -13.02699,-15.8885 -1.27665,-3.42849 -1.44819,-9.84959 -0.39425,-14.75794 2.14881,-10.00734 12.50252,-18.96567 23.51855,-20.34889 6.84184,-0.85909 17.27499,0.60651 23.03157,3.23538 4.90298,2.23903 9.78646,7.21708 14.18893,14.46369 2.77834,4.57324 3.89494,8.2047 4.59874,14.95602 0.66977,6.42455 0.37461,11.08381 -1.06807,16.8593 -1.42422,5.70183 -2.83303,8.5505 -8.03889,16.25529 -5.1856,7.67482 -8.72671,10.95759 -10.2148,9.46953 z M 466.15489,535.71955 c -13.58276,-1.53723 -27.90054,-6.72064 -41.83562,-15.14558 -10.51818,-6.35913 -17.43553,-12.53591 -28.31677,-25.28516 -3.35482,-3.93074 -7.4099,-8.44488 -9.01129,-10.03141 -1.60139,-1.58653 -7.31845,-7.82407 -12.70457,-13.8612 -12.42526,-13.92707 -17.95759,-18.93834 -25.11087,-22.74582 -7.00494,-3.72853 -14.21121,-5.56597 -21.98117,-5.60472 -1.71629,-0.009 -3.23581,-0.2021 -3.37671,-0.43008 -0.36195,-0.58565 4.74083,-7.2996 8.43233,-11.09476 6.94233,-7.13728 21.79593,-18.65038 27.55146,-21.35528 10.44529,-4.90892 17.29542,-6.09123 33.84191,-5.84098 11.29674,0.17085 12.76152,0.29846 18.32661,1.59658 10.41281,2.42892 24.53929,7.49376 38.20157,13.69662 3.32721,1.5106 6.12976,2.74655 6.22788,2.74655 0.85358,0 -1.86621,-11.76847 -4.36833,-18.90164 -7.16022,-20.41279 -21.30709,-36.03765 -39.05304,-43.13308 -4.39599,-1.75766 -11.22277,-3.69671 -14.98313,-4.25574 -2.36242,-0.3512 -2.42054,-0.32503 -7.05661,3.17769 -7.75988,5.86289 -12.7891,8.18948 -21.53131,9.96073 -5.30338,1.0745 -17.64189,0.80846 -21.07808,-0.45449 -8.12304,-2.98557 -10.90284,-9.83237 -7.7516,-19.09266 3.23006,-9.49192 12.45924,-23.78329 25.31388,-39.1985 9.48371,-11.37281 21.57573,-21.52202 40.53429,-34.02168 20.8661,-13.75732 31.71733,-19.50339 50.15234,-26.55724 20.42225,-7.81424 44.96893,-15.03142 56.14726,-16.50834 5.84798,-0.77265 6.55729,-0.15332 2.29092,2.00034 -7.66565,3.86961 -20.33661,12.66501 -34.42761,23.89752 -3.95598,3.15347 -8.9061,6.74658 -11.00028,7.98469 -6.4463,3.81116 -24.79704,15.57303 -25.86314,16.57693 -0.98917,0.93145 -0.96118,0.93466 1.51214,0.17314 17.33637,-5.33782 35.43898,-7.8462 65.77742,-9.11444 19.54071,-0.81686 61.34686,3.77046 83.19382,9.12872 14.25408,3.496 41.80898,11.92315 41.80898,12.78649 0,2.1039 -7.21916,3.52025 -22.17792,4.35119 -22.47285,1.24832 -41.4653,2.73954 -45.26549,3.55409 -4.00775,0.85903 -7.52782,2.33195 -12.70104,5.31453 l -3.33743,1.92417 -22.90264,0.7578 c -54.55179,1.80499 -61.20784,2.18486 -52.64122,3.00431 13.40218,1.28198 34.64747,5.85552 52.89131,11.38606 14.27732,4.32811 48.8448,16.56249 59.76244,21.15156 17.51724,7.36312 49.11429,23.72855 50.66851,26.24333 0.63338,1.02478 -10.44665,0.7595 -13.51658,-0.32362 -5.50482,-1.94221 -32.89057,-2.28501 -39.36774,-0.49278 -8.51596,2.35636 -32.21389,1.16711 -54.59426,-2.73974 -6.59159,-1.15067 -20.13632,-3.92189 -28.55896,-5.84309 -3.01296,-0.68726 -5.7255,-1.1671 -6.02787,-1.06631 -0.30236,0.10079 1.25552,0.92663 3.46195,1.83521 16.33629,6.72708 45.85614,20.69699 60.45893,28.61146 14.61365,7.92035 26.81711,15.78868 30.77662,19.84358 1.64291,1.68249 1.85509,2.11607 1.2322,2.51785 -3.38689,2.18457 -32.35352,7.52744 -40.82394,7.52995 -9.31877,0.003 -21.50178,-4.92476 -33.5189,-13.557 -2.21779,-1.5931 -4.37258,-3.09213 -4.78842,-3.33118 -1.20845,-0.69469 0.12481,0.90843 5.03939,6.05942 8.3671,8.76959 12.22046,14.03733 12.29918,16.81359 0.0497,1.75211 -0.0299,1.82907 -3.22534,3.11729 -4.36273,1.75882 -12.343,3.28346 -23.69006,4.526 -14.44875,1.58219 -13.85013,1.47804 -13.04619,2.26993 1.30371,1.28417 8.11754,4.34389 14.20948,6.3807 l 6.07349,2.03065 8.01257,-0.0403 c 18.27803,-0.0919 36.95396,-3.47142 55.57216,-10.05622 7.67222,-2.71347 23.49965,-9.43825 30.73698,-13.05956 17.39176,-8.70226 38.88373,-23.96846 53.23047,-37.81081 2.65979,-2.56627 4.98469,-4.66594 5.16645,-4.66594 0.8294,0 -0.2805,14.73642 -1.30971,17.3895 -1.70452,4.39382 -27.23217,35.70868 -41.5027,50.91154 -19.03658,20.28025 -47.74151,45.14535 -72.45644,62.764 -9.45127,6.73757 -19.08036,11.97907 -28.05312,15.27043 -6.20643,2.27663 -20.99353,5.67753 -27.64979,6.35922 -6.02709,0.61725 -22.75827,0.60303 -28.29905,-0.024 z"
       id="path3069"
       inkscape:connector-curvature="0" />
  </g>
</svg>
